<svg width="147" height="141" viewBox="0 0 147 141" fill="none" xmlns="http://www.w3.org/2000/svg">
<path d="M146.63 70.0099C146.63 77.2099 132.68 82.1199 130.57 88.6199C128.38 95.3499 136.71 107.51 132.63 113.12C128.55 118.73 114.35 114.6 108.69 118.72C103.03 122.84 102.71 137.58 95.98 139.77C89.25 141.96 80.52 130.21 73.32 130.21C66.12 130.21 57.16 141.88 50.66 139.77C44.16 137.66 43.55 122.8 37.95 118.72C32.35 114.64 18.13 118.78 14.01 113.12C9.89 107.46 18.26 95.3599 16.07 88.6199C13.88 81.8799 0 77.2099 0 70.0099C0 62.8099 13.95 57.8999 16.06 51.3999C18.17 44.8999 9.92 32.5099 14 26.8999C18.08 21.2899 32.28 25.4199 37.94 21.2999C43.6 17.1799 43.92 2.44994 50.66 0.269943C57.4 -1.91006 66.12 9.82994 73.32 9.82994C80.52 9.82994 89.48 -1.84006 95.98 0.269943C102.48 2.37994 103.09 17.2399 108.69 21.3199C114.29 25.3999 128.51 21.2599 132.63 26.9199C136.71 32.5299 128.38 44.6799 130.57 51.4199C132.76 58.1599 146.63 62.8199 146.63 70.0299V70.0099Z" fill="#140F04"/>
</svg>
