<svg width="8" height="8" viewBox="0 0 8 8" fill="none" xmlns="http://www.w3.org/2000/svg">
<path d="M8 3.99937C8 4.41067 7.2389 4.69116 7.12378 5.06248C7.0043 5.44693 7.45877 6.14158 7.23617 6.46206C7.01357 6.78253 6.23883 6.5466 5.93003 6.78196C5.62122 7.01732 5.60376 7.85935 5.23658 7.98446C4.8694 8.10956 4.3931 7.43834 4.00027 7.43834C3.60745 7.43834 3.1186 8.10499 2.76396 7.98446C2.40933 7.86392 2.37605 7.01503 2.07052 6.78196C1.76499 6.54889 0.989156 6.78539 0.764373 6.46206C0.539589 6.13873 0.996249 5.4475 0.876765 5.06248C0.75728 4.67745 0 4.41067 0 3.99937C0 3.58806 0.761099 3.30758 0.876219 2.93626C0.991339 2.56494 0.541226 1.85715 0.763827 1.53668C0.986428 1.2162 1.76117 1.45213 2.06997 1.21677C2.37878 0.981417 2.39624 0.139955 2.76396 0.0154207C3.13169 -0.109113 3.60745 0.561542 4.00027 0.561542C4.3931 0.561542 4.88195 -0.105115 5.23658 0.0154207C5.59122 0.135956 5.6245 0.984844 5.93003 1.21792C6.23556 1.45099 7.01139 1.21449 7.23617 1.53782C7.45877 1.8583 7.0043 2.55237 7.12378 2.9374C7.24327 3.32243 8 3.58863 8 4.00051V3.99937Z" fill="#C99CFD"/>
</svg>
