<svg width="14" height="14" viewBox="0 0 14 14" fill="none" xmlns="http://www.w3.org/2000/svg">
<path d="M2.33337 7.58333C2.33337 6.48339 2.33337 5.93342 2.67508 5.59171C3.01679 5.25 3.56676 5.25 4.66671 5.25H9.33338C10.4333 5.25 10.9833 5.25 11.325 5.59171C11.6667 5.93342 11.6667 6.48339 11.6667 7.58333V8.75C11.6667 10.3999 11.6667 11.2249 11.1541 11.7374C10.6416 12.25 9.81662 12.25 8.16671 12.25H5.83337C4.18346 12.25 3.3585 12.25 2.84594 11.7374C2.33337 11.2249 2.33337 10.3999 2.33337 8.75V7.58333Z" stroke="#140F04" stroke-width="1.5"/>
<path d="M9.33329 4.66667V4.08333C9.33329 2.79467 8.28862 1.75 6.99996 1.75C5.71129 1.75 4.66663 2.79467 4.66663 4.08333V4.66667" stroke="#140F04" stroke-width="1.5" stroke-linecap="round"/>
</svg>
