<svg width="31" height="34" viewBox="0 0 31 34" fill="none" xmlns="http://www.w3.org/2000/svg">
<path d="M14.2412 0.319503C14.7891 -0.106501 15.5567 -0.106501 16.1045 0.319503L29.7598 10.9396C30.1292 11.227 30.3446 11.6698 30.3447 12.1379V28.8273C30.3447 30.0344 29.8652 31.1925 29.0117 32.0461C28.1581 32.8995 27 33.3791 25.793 33.3791H4.55176C3.34488 33.379 2.18748 32.8993 1.33398 32.0461C0.480502 31.1925 5.35967e-05 30.0344 0 28.8273V12.1379C8.24291e-05 11.6698 0.216428 11.227 0.585938 10.9396L14.2412 0.319503ZM3.03516 12.8791V28.8273C3.03521 29.2296 3.19512 29.6151 3.47949 29.8996C3.76396 30.184 4.14947 30.3438 4.55176 30.3439H9.10352V16.6896C9.10366 15.8518 9.78323 15.172 10.6211 15.172H19.7246C20.5624 15.1721 21.242 15.8518 21.2422 16.6896V30.3439H25.793C26.1954 30.3439 26.5817 30.1841 26.8662 29.8996C27.1505 29.6151 27.3105 29.2295 27.3105 28.8273V12.8791L15.1729 3.43864L3.03516 12.8791ZM12.1387 30.3439H18.207V18.2062H12.1387V30.3439Z" fill="black"/>
</svg>
