<svg width="291" height="60" viewBox="0 0 291 60" fill="none" xmlns="http://www.w3.org/2000/svg">
<path d="M18.9153 47.5597C15.7437 47.5597 12.8518 46.829 10.2399 45.3675C7.65901 43.9061 5.62229 41.916 4.12974 39.3973C2.63719 36.8475 1.89091 34.0179 1.89091 30.9084C1.89091 27.7989 2.63719 24.9849 4.12974 22.4662C5.62229 19.9164 7.65901 17.9108 10.2399 16.4493C12.8518 14.9879 15.7437 14.2572 18.9153 14.2572C21.6828 14.2572 24.2325 14.8169 26.5647 15.9363C28.8968 17.0246 30.8402 18.5638 32.3949 20.5539C33.9497 22.5128 35.0069 24.7517 35.5666 27.2703H28.1039C27.6685 26.0265 26.9844 24.9382 26.0516 24.0054C25.1498 23.0414 24.0771 22.2952 22.8333 21.7666C21.6206 21.2379 20.3146 20.9736 18.9153 20.9736C17.0807 20.9736 15.4016 21.409 13.878 22.2796C12.3854 23.1503 11.2038 24.3474 10.3332 25.8711C9.4936 27.3636 9.07382 29.0427 9.07382 30.9084C9.07382 32.7741 9.4936 34.4688 10.3332 35.9924C11.2038 37.485 12.3854 38.6666 13.878 39.5372C15.4016 40.4079 17.0807 40.8432 18.9153 40.8432C20.3146 40.8432 21.6206 40.5789 22.8333 40.0503C24.0771 39.5217 25.1498 38.791 26.0516 37.8581C26.9844 36.8942 27.6685 35.7903 28.1039 34.5465H35.5666C35.0069 37.0652 33.9497 39.3196 32.3949 41.3097C30.8402 43.2686 28.8968 44.8078 26.5647 45.9272C24.2325 47.0156 21.6828 47.5597 18.9153 47.5597Z" fill="#140F04"/>
<path d="M36.881 13.4176H43.4575V43.9683L40.5191 40.9832H47.3755V47H36.881V13.4176Z" fill="#140F04"/>
<path d="M61.7256 43.5485L60.9327 42.3824V28.1099L62.0988 29.276H48.3859V23.2125H67.5093V42.1026L66.6231 41.0298H70.2145V47H61.7256V43.5485ZM55.0558 47.5597C53.4699 47.5597 52.0396 47.2177 50.7647 46.5336C49.5209 45.8495 48.5259 44.9167 47.7796 43.7351C47.0333 42.5534 46.6602 41.2319 46.6602 39.7705C46.6602 38.309 47.0333 36.9875 47.7796 35.8059C48.5259 34.6243 49.5209 33.707 50.7647 33.054C52.0396 32.3699 53.4699 32.0278 55.0558 32.0278H61.7256V36.8786H56.7349C56.113 36.8786 55.5533 37.003 55.0558 37.2518C54.5583 37.4694 54.154 37.7959 53.8431 38.2313C53.5632 38.6666 53.4233 39.1486 53.4233 39.6772C53.4233 40.2058 53.5632 40.6878 53.8431 41.1231C54.154 41.5273 54.5583 41.8538 55.0558 42.1026C55.5533 42.3513 56.113 42.4757 56.7349 42.4757C57.5745 42.4757 58.3052 42.3513 58.9271 42.1026C59.549 41.8538 60.031 41.4962 60.373 41.0298C60.7461 40.5634 60.9327 40.0348 60.9327 39.444L63.5447 39.6772C63.5447 41.1697 63.1715 42.5224 62.4253 43.7351C61.7101 44.9167 60.6995 45.8495 59.3935 46.5336C58.1186 47.2177 56.6727 47.5597 55.0558 47.5597Z" fill="#140F04"/>
<path d="M80.8074 47.5597C78.6619 47.5597 76.7029 47.0156 74.9305 45.9272C73.1892 44.8389 71.8055 43.3464 70.7793 41.4496C69.7843 39.5528 69.2868 37.4383 69.2868 35.1062C69.2868 32.7741 69.7843 30.6597 70.7793 28.7629C71.8055 26.8661 73.1892 25.3736 74.9305 24.2852C76.7029 23.1969 78.6619 22.6528 80.8074 22.6528C82.8597 22.6528 84.6632 23.1969 86.2179 24.2852C87.8037 25.3425 89.032 26.8195 89.9026 28.7162C90.7733 30.613 91.2086 32.743 91.2086 35.1062C91.2086 37.4694 90.7733 39.5994 89.9026 41.4962C89.032 43.393 87.8037 44.8856 86.2179 45.9739C84.6632 47.0311 82.8597 47.5597 80.8074 47.5597ZM82.1134 41.2164C83.2639 41.2164 84.29 40.9521 85.1918 40.4234C86.1246 39.8948 86.8553 39.1641 87.384 38.2313C87.9126 37.2984 88.1769 36.2567 88.1769 35.1062C88.1769 33.9557 87.9126 32.914 87.384 31.9812C86.8553 31.0484 86.1246 30.3176 85.1918 29.789C84.2589 29.2604 83.2328 28.9961 82.1134 28.9961C80.9629 28.9961 79.9212 29.2604 78.9883 29.789C78.0866 30.3176 77.3714 31.0484 76.8428 31.9812C76.3142 32.914 76.0499 33.9557 76.0499 35.1062C76.0499 36.2567 76.3142 37.2984 76.8428 38.2313C77.3714 39.1641 78.0866 39.8948 78.9883 40.4234C79.9212 40.9521 80.9629 41.2164 82.1134 41.2164ZM88.1769 23.2125H94.7534V55.862H88.1769V23.2125Z" fill="#140F04"/>
<path d="M105.936 47.5597C104.194 47.5597 102.639 47.1866 101.271 46.4403C99.9342 45.694 98.8926 44.6523 98.1463 43.3153C97.4311 41.9471 97.0735 40.3613 97.0735 38.5578V23.2125H103.65V36.5988C103.65 37.9981 104.054 39.1175 104.863 39.957C105.702 40.7966 106.791 41.2164 108.128 41.2164C109.061 41.2164 109.885 41.0298 110.6 40.6567C111.346 40.2524 111.921 39.6927 112.326 38.9775C112.73 38.2624 112.932 37.4383 112.932 36.5055L115.824 37.3451C115.451 39.5217 114.813 41.3718 113.911 42.8955C113.01 44.4191 111.875 45.5852 110.506 46.3937C109.169 47.171 107.646 47.5597 105.936 47.5597ZM112.932 23.2125H119.508V47H112.932V23.2125Z" fill="#140F04"/>
<path d="M133.586 47.5597C131.192 47.5597 129.015 47.0156 127.056 45.9272C125.128 44.8389 123.605 43.3464 122.485 41.4496C121.366 39.5528 120.806 37.4383 120.806 35.1062C120.806 32.7741 121.35 30.6597 122.439 28.7629C123.558 26.8661 125.097 25.3736 127.056 24.2852C129.015 23.1969 131.192 22.6528 133.586 22.6528C136.011 22.6528 138.188 23.1969 140.116 24.2852C142.075 25.3736 143.614 26.8817 144.734 28.8095C145.853 30.7063 146.413 32.8363 146.413 35.1995C146.413 36.0391 146.35 36.7387 146.226 37.2984H126.59V32.7741H141.002L139.65 35.1062V34.7331C139.618 33.4893 139.339 32.3854 138.81 31.4215C138.281 30.4576 137.566 29.7113 136.664 29.1827C135.763 28.6541 134.737 28.3897 133.586 28.3897C132.467 28.3897 131.44 28.6696 130.508 29.2293C129.606 29.789 128.891 30.5819 128.362 31.6081C127.833 32.6342 127.569 33.8003 127.569 35.1062C127.569 36.4122 127.833 37.5783 128.362 38.6044C128.891 39.6305 129.621 40.4235 130.554 40.9832C131.487 41.5429 132.544 41.8227 133.726 41.8227C134.908 41.8227 135.965 41.5895 136.898 41.1231C137.862 40.6567 138.546 40.0348 138.95 39.2574H145.946C145.076 41.745 143.536 43.7506 141.329 45.2742C139.121 46.7979 136.54 47.5597 133.586 47.5597Z" fill="#140F04"/>
<path d="M161.116 41.9253H170.37C172.625 41.9253 174.648 41.3946 176.439 40.3333C178.264 39.2719 179.706 37.8291 180.768 36.0049C181.829 34.1475 182.36 32.0911 182.36 29.8357C182.36 27.5802 181.829 25.5404 180.768 23.7162C179.706 21.8588 178.264 20.3994 176.439 19.338C174.648 18.2767 172.625 17.746 170.37 17.746H161.116V12.6713H170.469C173.72 12.6713 176.671 13.4176 179.325 14.9101C182.011 16.4027 184.101 18.4591 185.594 21.0794C187.119 23.6996 187.882 26.6184 187.882 29.8357C187.882 33.0529 187.119 35.9717 185.594 38.592C184.101 41.2122 182.011 43.2686 179.325 44.7612C176.671 46.2537 173.72 47 170.469 47H161.116V41.9253ZM157.136 12.6713H162.509V47H157.136V12.6713Z" fill="#140F04"/>
<path d="M202.521 47.597C200 47.597 197.695 47.0166 195.605 45.8557C193.549 44.6948 191.924 43.1028 190.73 41.0795C189.569 39.0563 188.988 36.8009 188.988 34.3133C188.988 31.8257 189.569 29.5703 190.73 27.5471C191.924 25.5238 193.549 23.9318 195.605 22.7709C197.695 21.61 200 21.0296 202.521 21.0296C205.075 21.0296 207.38 21.61 209.436 22.7709C211.526 23.9318 213.151 25.5238 214.312 27.5471C215.506 29.5703 216.103 31.8257 216.103 34.3133C216.103 36.8009 215.506 39.0563 214.312 41.0795C213.151 43.1028 211.526 44.6948 209.436 45.8557C207.38 47.0166 205.075 47.597 202.521 47.597ZM202.521 42.6716C204.08 42.6716 205.489 42.3068 206.75 41.5771C208.043 40.8474 209.055 39.8523 209.785 38.592C210.514 37.2984 210.879 35.8722 210.879 34.3133C210.879 32.7544 210.514 31.3448 209.785 30.0844C209.055 28.7909 208.043 27.7793 206.75 27.0496C205.489 26.3199 204.08 25.955 202.521 25.955C200.962 25.955 199.552 26.3199 198.292 27.0496C197.032 27.7793 196.037 28.7909 195.307 30.0844C194.577 31.3448 194.212 32.7544 194.212 34.3133C194.212 35.8722 194.577 37.2984 195.307 38.592C196.037 39.8523 197.032 40.8474 198.292 41.5771C199.552 42.3068 200.962 42.6716 202.521 42.6716Z" fill="#140F04"/>
<path d="M218.35 21.6266H223.425V47H218.35V21.6266ZM220.887 17.0495C219.959 17.0495 219.179 16.7344 218.549 16.1042C217.919 15.474 217.604 14.6946 217.604 13.7659C217.604 12.8372 217.919 12.0577 218.549 11.4275C219.179 10.7973 219.959 10.4822 220.887 10.4822C221.816 10.4822 222.596 10.7973 223.226 11.4275C223.856 12.0577 224.171 12.8372 224.171 13.7659C224.171 14.6946 223.856 15.474 223.226 16.1042C222.596 16.7344 221.816 17.0495 220.887 17.0495Z" fill="#140F04"/>
<path d="M228.263 51.8259H249.905L247.667 54.0648V21.6266H252.692V56.4528H228.263V51.8259ZM238.363 47C235.975 47 233.836 46.4362 231.945 45.3084C230.055 44.1807 228.545 42.6384 227.418 40.6815C226.323 38.6915 225.776 36.4692 225.776 34.0148C225.776 31.5936 226.323 29.3879 227.418 27.3978C228.545 25.4078 230.055 23.8489 231.945 22.7212C233.836 21.5935 235.975 21.0296 238.363 21.0296C240.618 21.0296 242.642 21.5935 244.433 22.7212C246.224 23.8489 247.617 25.4078 248.612 27.3978C249.607 29.3547 250.104 31.5604 250.104 34.0148C250.104 36.4692 249.607 38.6915 248.612 40.6815C247.617 42.6384 246.224 44.1807 244.433 45.3084C242.642 46.4362 240.618 47 238.363 47ZM239.308 42.3731C240.867 42.3731 242.277 42.0248 243.537 41.3283C244.831 40.5986 245.842 39.587 246.572 38.2935C247.302 36.9999 247.667 35.5737 247.667 34.0148C247.667 32.4559 247.302 31.0463 246.572 29.7859C245.842 28.4924 244.831 27.4807 243.537 26.7511C242.277 26.0214 240.867 25.6565 239.308 25.6565C237.749 25.6565 236.34 26.0214 235.079 26.7511C233.819 27.4807 232.824 28.4924 232.094 29.7859C231.365 31.0463 231 32.4559 231 34.0148C231 35.5737 231.365 36.9999 232.094 38.2935C232.824 39.587 233.819 40.5986 235.079 41.3283C236.34 42.0248 237.749 42.3731 239.308 42.3731Z" fill="#140F04"/>
<path d="M259.429 14.1639H264.503V44.7612L262.215 42.3731H271.319V47H259.429V14.1639ZM254.603 21.6266H271.319V26.2535H254.603V21.6266Z" fill="#140F04"/>
<path d="M280.206 47.597C278.515 47.597 277.006 47.2488 275.679 46.5522C274.352 45.8225 273.307 44.8607 272.544 43.6666C271.782 42.4394 271.4 41.0961 271.4 39.6368H276.574C276.574 40.5655 276.923 41.3781 277.619 42.0746C278.349 42.7379 279.228 43.0696 280.256 43.0696C281.185 43.0696 281.981 42.7877 282.644 42.2238C283.341 41.66 283.689 40.98 283.689 40.184C283.689 39.2222 283.291 38.4427 282.495 37.8457C281.732 37.2487 280.604 36.7512 279.112 36.3531C276.889 35.7561 275.098 34.8772 273.738 33.7163C272.412 32.5223 271.748 30.7975 271.748 28.5421C271.748 27.0164 272.113 25.6897 272.843 24.562C273.606 23.4011 274.617 22.5222 275.878 21.9251C277.171 21.3281 278.598 21.0296 280.156 21.0296C281.749 21.0296 283.175 21.3779 284.435 22.0744C285.729 22.7377 286.74 23.6499 287.47 24.8107C288.2 25.9716 288.564 27.2486 288.564 28.6416H283.39C283.39 27.8124 283.075 27.0993 282.445 26.5023C281.815 25.8721 281.035 25.557 280.107 25.557C279.244 25.557 278.498 25.8224 277.868 26.353C277.238 26.8837 276.923 27.5139 276.923 28.2436C276.923 29.1723 277.321 29.9517 278.117 30.5819C278.946 31.179 280.107 31.6599 281.599 32.0247C283.888 32.6218 285.679 33.5339 286.972 34.7611C288.266 35.9883 288.913 37.6467 288.913 39.7363C288.913 41.3283 288.531 42.7214 287.768 43.9154C287.006 45.0763 285.961 45.9884 284.634 46.6517C283.307 47.2819 281.831 47.597 280.206 47.597Z" fill="#140F04"/>
</svg>
