<svg width="303" height="459" viewBox="0 0 303 459" fill="none" xmlns="http://www.w3.org/2000/svg">
<g clip-path="url(#clip0_69_1184)">
<path d="M105.867 125.245C110.593 115.267 106.339 103.347 96.3619 98.6204L28.5669 66.4821C18.5894 61.7559 6.6688 66.0095 1.94259 75.9871C-2.78363 85.9646 1.46997 97.8852 11.4475 102.611L79.2425 134.75C89.22 139.476 101.141 135.222 105.867 125.245Z" fill="black"/>
<path d="M129.971 113.167C140.789 115.32 151.344 108.335 153.497 97.5176L168.253 23.9987C170.406 13.1809 163.422 2.62571 152.604 0.472656C141.787 -1.6804 131.231 5.3039 129.078 16.1217L114.322 89.6406C112.169 100.458 119.153 111.014 129.971 113.167Z" fill="black"/>
<path d="M292.553 172.717C282.628 155.335 266.507 142.889 247.182 137.638L238.727 135.327C163.738 114.952 86.2277 159.378 65.8524 234.315L27.7801 374.264C25.417 382.981 26.5723 392.118 31.0885 399.943C35.5521 407.767 42.8515 413.386 51.5688 415.749L203.018 456.92C205.959 457.708 208.952 458.128 211.893 458.128C226.754 458.128 240.46 448.203 244.503 433.184L299.853 229.642C305.104 210.317 302.531 190.099 292.553 172.769V172.717ZM203.543 409.763L74.9898 374.841L109.911 246.341C116.581 221.817 132.387 201.337 154.443 188.733C156.648 187.473 158.906 186.37 161.164 185.32L151.66 220.242C138.426 268.869 167.256 319.177 215.884 332.358L223.971 334.564L203.49 409.868L203.543 409.763ZM255.794 217.668L234.893 294.548L226.806 292.343C200.235 285.096 184.48 257.631 191.675 231.007L206.536 176.235C213.258 176.603 220.032 177.601 226.701 179.439L235.156 181.749C242.718 183.797 249.02 188.681 252.906 195.455C256.792 202.229 257.789 210.106 255.741 217.668H255.794Z" fill="black"/>
</g>
<defs>
<clipPath id="clip0_69_1184">
<rect width="302.53" height="458.128" fill="white"/>
</clipPath>
</defs>
</svg>
